<svg xmlns="http://www.w3.org/2000/svg" viewBox="0 0 44 44">
  <path fill="#000000" d="M22 6c-4.1 0-7.4 3.3-7.4 7.4v10.2c0 4.1 3.3 7.4 7.4 7.4s7.4-3.3 7.4-7.4V13.4C29.4 9.3 26.1 6 22 6Zm0 3.5c2.2 0 3.9 1.7 3.9 3.9v10.2c0 2.2-1.7 3.9-3.9 3.9s-3.9-1.7-3.9-3.9V13.4c0-2.2 1.7-3.9 3.9-3.9Z"/>
  <path fill="#000000" d="M10.8 21.8c0-1 .8-1.8 1.8-1.8s1.8.8 1.8 1.8v1.4c0 4.2 3.4 7.6 7.6 7.6s7.6-3.4 7.6-7.6v-1.4c0-1 .8-1.8 1.8-1.8s1.8.8 1.8 1.8v1.4c0 5.5-4 10.1-9.3 10.9v2.4h4.6c1 0 1.8.8 1.8 1.8s-.8 1.7-1.8 1.7H15.5c-1 0-1.8-.8-1.8-1.7 0-1 .8-1.8 1.8-1.8h4.6v-2.4c-5.3-.9-9.3-5.4-9.3-10.9v-1.4Z"/>
</svg>
